<mxfile host="app.diagrams.net" agent="Mozilla/5.0 (Windows NT 10.0; Win64; x64) AppleWebKit/537.36 (KHTML, like Gecko) Chrome/129.0.0.0 Safari/537.36 Edg/129.0.0.0" version="24.7.17">
  <diagram name="Księgarnia" id="1Vn6TmNKFl5bF3aq9N__">
    <mxGraphModel dx="1114" dy="579" grid="1" gridSize="10" guides="1" tooltips="1" connect="1" arrows="1" fold="1" page="1" pageScale="1" pageWidth="827" pageHeight="1169" math="0" shadow="0">
      <root>
        <mxCell id="0" />
        <mxCell id="1" parent="0" />
        <mxCell id="a_bGSb2JIHBUvS37xZA7-6" value="" style="edgeStyle=orthogonalEdgeStyle;rounded=1;orthogonalLoop=1;jettySize=auto;html=1;strokeColor=#FFFFFF;" parent="1" source="a_bGSb2JIHBUvS37xZA7-1" target="a_bGSb2JIHBUvS37xZA7-5" edge="1">
          <mxGeometry relative="1" as="geometry" />
        </mxCell>
        <mxCell id="a_bGSb2JIHBUvS37xZA7-1" value="START" style="ellipse;shape=doubleEllipse;html=1;dashed=0;whiteSpace=wrap;aspect=fixed;hachureGap=4;fontFamily=Architects Daughter;fontSource=https%3A%2F%2Ffonts.googleapis.com%2Fcss%3Ffamily%3DArchitects%2BDaughter;labelBackgroundColor=none;rounded=1;" parent="1" vertex="1">
          <mxGeometry x="384" y="30" width="60" height="60" as="geometry" />
        </mxCell>
        <mxCell id="a_bGSb2JIHBUvS37xZA7-8" value="" style="edgeStyle=orthogonalEdgeStyle;rounded=1;orthogonalLoop=1;jettySize=auto;html=1;" parent="1" source="a_bGSb2JIHBUvS37xZA7-5" target="a_bGSb2JIHBUvS37xZA7-7" edge="1">
          <mxGeometry relative="1" as="geometry" />
        </mxCell>
        <mxCell id="a_bGSb2JIHBUvS37xZA7-5" value="Dziennikarz podaje swój login i hasło" style="whiteSpace=wrap;html=1;fontFamily=Architects Daughter;dashed=0;hachureGap=4;fontSource=https%3A%2F%2Ffonts.googleapis.com%2Fcss%3Ffamily%3DArchitects%2BDaughter;labelBackgroundColor=none;rounded=1;" parent="1" vertex="1">
          <mxGeometry x="354" y="130" width="120" height="60" as="geometry" />
        </mxCell>
        <mxCell id="a_bGSb2JIHBUvS37xZA7-14" value="" style="edgeStyle=orthogonalEdgeStyle;rounded=1;orthogonalLoop=1;jettySize=auto;html=1;strokeColor=#FF6666;" parent="1" source="a_bGSb2JIHBUvS37xZA7-7" target="a_bGSb2JIHBUvS37xZA7-13" edge="1">
          <mxGeometry relative="1" as="geometry" />
        </mxCell>
        <mxCell id="a_bGSb2JIHBUvS37xZA7-21" value="" style="edgeStyle=orthogonalEdgeStyle;rounded=1;orthogonalLoop=1;jettySize=auto;html=1;strokeColor=#006633;" parent="1" source="a_bGSb2JIHBUvS37xZA7-7" target="a_bGSb2JIHBUvS37xZA7-20" edge="1">
          <mxGeometry relative="1" as="geometry" />
        </mxCell>
        <mxCell id="a_bGSb2JIHBUvS37xZA7-7" value="Czy login i hasło jest prawidłowe" style="rhombus;whiteSpace=wrap;html=1;fontFamily=Architects Daughter;dashed=0;hachureGap=4;fontSource=https%3A%2F%2Ffonts.googleapis.com%2Fcss%3Ffamily%3DArchitects%2BDaughter;labelBackgroundColor=none;rounded=1;" parent="1" vertex="1">
          <mxGeometry x="336" y="230" width="156" height="140" as="geometry" />
        </mxCell>
        <mxCell id="a_bGSb2JIHBUvS37xZA7-13" value="Wypisz komunikat o błędzie w logowaniu&amp;nbsp;" style="shape=parallelogram;perimeter=parallelogramPerimeter;whiteSpace=wrap;html=1;fixedSize=1;fontFamily=Architects Daughter;dashed=0;hachureGap=4;fontSource=https%3A%2F%2Ffonts.googleapis.com%2Fcss%3Ffamily%3DArchitects%2BDaughter;labelBackgroundColor=none;rounded=1;" parent="1" vertex="1">
          <mxGeometry x="60" y="270" width="218" height="60" as="geometry" />
        </mxCell>
        <mxCell id="a_bGSb2JIHBUvS37xZA7-19" value="" style="endArrow=open;endFill=1;endSize=12;html=1;rounded=1;exitX=0.5;exitY=0;exitDx=0;exitDy=0;strokeColor=#FFFFFF;" parent="1" source="a_bGSb2JIHBUvS37xZA7-13" edge="1">
          <mxGeometry width="160" relative="1" as="geometry">
            <mxPoint x="160" y="159" as="sourcePoint" />
            <mxPoint x="354" y="159.23" as="targetPoint" />
            <Array as="points">
              <mxPoint x="169" y="160" />
            </Array>
          </mxGeometry>
        </mxCell>
        <mxCell id="a_bGSb2JIHBUvS37xZA7-27" value="" style="edgeStyle=orthogonalEdgeStyle;rounded=1;orthogonalLoop=1;jettySize=auto;html=1;strokeColor=#FFFFFF;" parent="1" source="a_bGSb2JIHBUvS37xZA7-20" target="a_bGSb2JIHBUvS37xZA7-26" edge="1">
          <mxGeometry relative="1" as="geometry" />
        </mxCell>
        <mxCell id="a_bGSb2JIHBUvS37xZA7-29" value="" style="edgeStyle=orthogonalEdgeStyle;rounded=1;orthogonalLoop=1;jettySize=auto;html=1;strokeColor=#FFFFFF;" parent="1" source="a_bGSb2JIHBUvS37xZA7-20" target="a_bGSb2JIHBUvS37xZA7-28" edge="1">
          <mxGeometry relative="1" as="geometry" />
        </mxCell>
        <mxCell id="a_bGSb2JIHBUvS37xZA7-88" value="" style="edgeStyle=orthogonalEdgeStyle;rounded=1;orthogonalLoop=1;jettySize=auto;html=1;strokeColor=#FFFFFF;" parent="1" source="a_bGSb2JIHBUvS37xZA7-20" target="a_bGSb2JIHBUvS37xZA7-87" edge="1">
          <mxGeometry relative="1" as="geometry" />
        </mxCell>
        <mxCell id="a_bGSb2JIHBUvS37xZA7-20" value="&lt;div&gt;Widok główny&lt;/div&gt;" style="rhombus;whiteSpace=wrap;html=1;fontFamily=Architects Daughter;dashed=0;hachureGap=4;fontSource=https%3A%2F%2Ffonts.googleapis.com%2Fcss%3Ffamily%3DArchitects%2BDaughter;labelBackgroundColor=none;rounded=1;" parent="1" vertex="1">
          <mxGeometry x="580" y="230" width="160" height="140" as="geometry" />
        </mxCell>
        <mxCell id="a_bGSb2JIHBUvS37xZA7-34" value="" style="edgeStyle=orthogonalEdgeStyle;rounded=1;orthogonalLoop=1;jettySize=auto;html=1;strokeColor=#FFFFFF;" parent="1" source="a_bGSb2JIHBUvS37xZA7-26" target="a_bGSb2JIHBUvS37xZA7-33" edge="1">
          <mxGeometry relative="1" as="geometry" />
        </mxCell>
        <mxCell id="a_bGSb2JIHBUvS37xZA7-36" value="" style="edgeStyle=orthogonalEdgeStyle;rounded=1;orthogonalLoop=1;jettySize=auto;html=1;strokeColor=#FFFFFF;" parent="1" source="a_bGSb2JIHBUvS37xZA7-26" target="a_bGSb2JIHBUvS37xZA7-35" edge="1">
          <mxGeometry relative="1" as="geometry" />
        </mxCell>
        <mxCell id="a_bGSb2JIHBUvS37xZA7-38" value="" style="edgeStyle=orthogonalEdgeStyle;rounded=1;orthogonalLoop=1;jettySize=auto;html=1;strokeColor=#FFFFFF;" parent="1" source="a_bGSb2JIHBUvS37xZA7-26" target="a_bGSb2JIHBUvS37xZA7-37" edge="1">
          <mxGeometry relative="1" as="geometry" />
        </mxCell>
        <mxCell id="a_bGSb2JIHBUvS37xZA7-26" value="Widok czytelników&lt;div&gt;Lista użytkowników&lt;/div&gt;" style="whiteSpace=wrap;html=1;fontFamily=Architects Daughter;dashed=0;hachureGap=4;fontSource=https%3A%2F%2Ffonts.googleapis.com%2Fcss%3Ffamily%3DArchitects%2BDaughter;labelBackgroundColor=none;rounded=1;" parent="1" vertex="1">
          <mxGeometry x="474" y="410" width="140" height="60" as="geometry" />
        </mxCell>
        <mxCell id="a_bGSb2JIHBUvS37xZA7-70" value="" style="edgeStyle=orthogonalEdgeStyle;rounded=1;orthogonalLoop=1;jettySize=auto;html=1;strokeColor=#FFFFFF;" parent="1" source="a_bGSb2JIHBUvS37xZA7-28" target="a_bGSb2JIHBUvS37xZA7-69" edge="1">
          <mxGeometry relative="1" as="geometry" />
        </mxCell>
        <mxCell id="a_bGSb2JIHBUvS37xZA7-28" value="Przeglądanie katalogu książek" style="whiteSpace=wrap;html=1;fontFamily=Architects Daughter;dashed=0;hachureGap=4;fontSource=https%3A%2F%2Ffonts.googleapis.com%2Fcss%3Ffamily%3DArchitects%2BDaughter;labelBackgroundColor=none;rounded=1;" parent="1" vertex="1">
          <mxGeometry x="770" y="410" width="190" height="60" as="geometry" />
        </mxCell>
        <mxCell id="a_bGSb2JIHBUvS37xZA7-40" value="" style="edgeStyle=orthogonalEdgeStyle;rounded=1;orthogonalLoop=1;jettySize=auto;html=1;strokeColor=#FFFFFF;" parent="1" source="a_bGSb2JIHBUvS37xZA7-33" target="a_bGSb2JIHBUvS37xZA7-39" edge="1">
          <mxGeometry relative="1" as="geometry" />
        </mxCell>
        <mxCell id="a_bGSb2JIHBUvS37xZA7-33" value="Dodanie nowego czytelnika" style="whiteSpace=wrap;html=1;fontFamily=Architects Daughter;dashed=0;hachureGap=4;fontSource=https%3A%2F%2Ffonts.googleapis.com%2Fcss%3Ffamily%3DArchitects%2BDaughter;labelBackgroundColor=none;rounded=1;" parent="1" vertex="1">
          <mxGeometry x="390" y="520" width="120" height="60" as="geometry" />
        </mxCell>
        <mxCell id="a_bGSb2JIHBUvS37xZA7-44" value="" style="edgeStyle=orthogonalEdgeStyle;rounded=1;orthogonalLoop=1;jettySize=auto;html=1;strokeColor=#FFFFFF;" parent="1" source="a_bGSb2JIHBUvS37xZA7-35" target="a_bGSb2JIHBUvS37xZA7-43" edge="1">
          <mxGeometry relative="1" as="geometry" />
        </mxCell>
        <mxCell id="a_bGSb2JIHBUvS37xZA7-35" value="Usunięcie czytelnika" style="rounded=1;whiteSpace=wrap;html=1;fontFamily=Architects Daughter;dashed=0;hachureGap=4;fontSource=https%3A%2F%2Ffonts.googleapis.com%2Fcss%3Ffamily%3DArchitects%2BDaughter;labelBackgroundColor=none;" parent="1" vertex="1">
          <mxGeometry x="580" y="520" width="120" height="60" as="geometry" />
        </mxCell>
        <mxCell id="a_bGSb2JIHBUvS37xZA7-48" value="" style="edgeStyle=orthogonalEdgeStyle;rounded=1;orthogonalLoop=1;jettySize=auto;html=1;strokeColor=#FFFFFF;" parent="1" source="a_bGSb2JIHBUvS37xZA7-37" edge="1">
          <mxGeometry relative="1" as="geometry">
            <mxPoint x="266.0000000000002" y="510" as="targetPoint" />
          </mxGeometry>
        </mxCell>
        <mxCell id="a_bGSb2JIHBUvS37xZA7-37" value="Sprawdzenie wypożyczenia danego czytelnika" style="whiteSpace=wrap;html=1;fontFamily=Architects Daughter;dashed=0;hachureGap=4;fontSource=https%3A%2F%2Ffonts.googleapis.com%2Fcss%3Ffamily%3DArchitects%2BDaughter;labelBackgroundColor=none;rounded=1;" parent="1" vertex="1">
          <mxGeometry x="206" y="410" width="120" height="60" as="geometry" />
        </mxCell>
        <mxCell id="a_bGSb2JIHBUvS37xZA7-42" value="" style="edgeStyle=orthogonalEdgeStyle;rounded=1;orthogonalLoop=1;jettySize=auto;html=1;strokeColor=#FFFFFF;" parent="1" source="a_bGSb2JIHBUvS37xZA7-39" target="a_bGSb2JIHBUvS37xZA7-41" edge="1">
          <mxGeometry relative="1" as="geometry" />
        </mxCell>
        <mxCell id="a_bGSb2JIHBUvS37xZA7-39" value="Podanie danych nowego czytelnika" style="shape=parallelogram;perimeter=parallelogramPerimeter;whiteSpace=wrap;html=1;fixedSize=1;fontFamily=Architects Daughter;dashed=0;hachureGap=4;fontSource=https%3A%2F%2Ffonts.googleapis.com%2Fcss%3Ffamily%3DArchitects%2BDaughter;labelBackgroundColor=none;rounded=1;" parent="1" vertex="1">
          <mxGeometry x="367" y="610" width="166" height="60" as="geometry" />
        </mxCell>
        <mxCell id="a_bGSb2JIHBUvS37xZA7-95" style="edgeStyle=orthogonalEdgeStyle;rounded=1;orthogonalLoop=1;jettySize=auto;html=1;exitX=0.5;exitY=1;exitDx=0;exitDy=0;strokeColor=#FFFFFF;" parent="1" source="a_bGSb2JIHBUvS37xZA7-41" edge="1">
          <mxGeometry relative="1" as="geometry">
            <mxPoint x="750" y="300" as="targetPoint" />
          </mxGeometry>
        </mxCell>
        <mxCell id="a_bGSb2JIHBUvS37xZA7-41" value="Dodanie nowego użytkownika do bazy" style="shape=parallelogram;perimeter=parallelogramPerimeter;whiteSpace=wrap;html=1;fixedSize=1;fontFamily=Architects Daughter;dashed=0;hachureGap=4;fontSource=https%3A%2F%2Ffonts.googleapis.com%2Fcss%3Ffamily%3DArchitects%2BDaughter;labelBackgroundColor=none;rounded=1;" parent="1" vertex="1">
          <mxGeometry x="369" y="700" width="160" height="60" as="geometry" />
        </mxCell>
        <mxCell id="a_bGSb2JIHBUvS37xZA7-46" value="" style="edgeStyle=orthogonalEdgeStyle;rounded=1;orthogonalLoop=1;jettySize=auto;html=1;strokeColor=#FFFFFF;" parent="1" source="a_bGSb2JIHBUvS37xZA7-43" target="a_bGSb2JIHBUvS37xZA7-45" edge="1">
          <mxGeometry relative="1" as="geometry" />
        </mxCell>
        <mxCell id="a_bGSb2JIHBUvS37xZA7-43" value="Podanie imię i&amp;nbsp;&lt;div&gt;nazwisko czytelnika&lt;/div&gt;" style="shape=parallelogram;perimeter=parallelogramPerimeter;whiteSpace=wrap;html=1;fixedSize=1;fontFamily=Architects Daughter;dashed=0;hachureGap=4;fontSource=https%3A%2F%2Ffonts.googleapis.com%2Fcss%3Ffamily%3DArchitects%2BDaughter;labelBackgroundColor=none;rounded=1;" parent="1" vertex="1">
          <mxGeometry x="565" y="610" width="150" height="60" as="geometry" />
        </mxCell>
        <mxCell id="a_bGSb2JIHBUvS37xZA7-96" style="edgeStyle=orthogonalEdgeStyle;rounded=1;orthogonalLoop=1;jettySize=auto;html=1;exitX=0.5;exitY=1;exitDx=0;exitDy=0;strokeColor=#FFFFFF;" parent="1" source="a_bGSb2JIHBUvS37xZA7-45" edge="1">
          <mxGeometry relative="1" as="geometry">
            <mxPoint x="760" y="310" as="targetPoint" />
          </mxGeometry>
        </mxCell>
        <mxCell id="a_bGSb2JIHBUvS37xZA7-45" value="Usunięcie danego użytkownika z bazy" style="shape=parallelogram;perimeter=parallelogramPerimeter;whiteSpace=wrap;html=1;fixedSize=1;fontFamily=Architects Daughter;rounded=1;dashed=0;hachureGap=4;fontSource=https%3A%2F%2Ffonts.googleapis.com%2Fcss%3Ffamily%3DArchitects%2BDaughter;labelBackgroundColor=none;" parent="1" vertex="1">
          <mxGeometry x="560" y="700" width="160" height="60" as="geometry" />
        </mxCell>
        <mxCell id="a_bGSb2JIHBUvS37xZA7-56" value="" style="edgeStyle=orthogonalEdgeStyle;rounded=1;orthogonalLoop=1;jettySize=auto;html=1;strokeColor=#FFFFFF;" parent="1" source="a_bGSb2JIHBUvS37xZA7-49" target="a_bGSb2JIHBUvS37xZA7-55" edge="1">
          <mxGeometry relative="1" as="geometry" />
        </mxCell>
        <mxCell id="a_bGSb2JIHBUvS37xZA7-49" value="Podanie imię i&amp;nbsp;&lt;div&gt;nazwisko czytelnika&lt;/div&gt;" style="shape=parallelogram;perimeter=parallelogramPerimeter;whiteSpace=wrap;html=1;fixedSize=1;fontFamily=Architects Daughter;dashed=0;hachureGap=4;fontSource=https%3A%2F%2Ffonts.googleapis.com%2Fcss%3Ffamily%3DArchitects%2BDaughter;labelBackgroundColor=none;rounded=1;" parent="1" vertex="1">
          <mxGeometry x="193" y="510" width="146" height="60" as="geometry" />
        </mxCell>
        <mxCell id="a_bGSb2JIHBUvS37xZA7-58" value="" style="edgeStyle=orthogonalEdgeStyle;rounded=1;orthogonalLoop=1;jettySize=auto;html=1;strokeColor=#FFFFFF;" parent="1" source="a_bGSb2JIHBUvS37xZA7-55" target="a_bGSb2JIHBUvS37xZA7-57" edge="1">
          <mxGeometry relative="1" as="geometry" />
        </mxCell>
        <mxCell id="a_bGSb2JIHBUvS37xZA7-55" value="Wyświetlenie wypożyczonych książek" style="whiteSpace=wrap;html=1;fontFamily=Architects Daughter;dashed=0;hachureGap=4;fontSource=https%3A%2F%2Ffonts.googleapis.com%2Fcss%3Ffamily%3DArchitects%2BDaughter;labelBackgroundColor=none;rounded=1;" parent="1" vertex="1">
          <mxGeometry x="206" y="610" width="120" height="60" as="geometry" />
        </mxCell>
        <mxCell id="a_bGSb2JIHBUvS37xZA7-60" value="" style="edgeStyle=orthogonalEdgeStyle;rounded=1;orthogonalLoop=1;jettySize=auto;html=1;strokeColor=#FFFFFF;" parent="1" source="a_bGSb2JIHBUvS37xZA7-57" target="a_bGSb2JIHBUvS37xZA7-59" edge="1">
          <mxGeometry relative="1" as="geometry" />
        </mxCell>
        <mxCell id="a_bGSb2JIHBUvS37xZA7-64" value="" style="edgeStyle=orthogonalEdgeStyle;rounded=1;orthogonalLoop=1;jettySize=auto;html=1;strokeColor=#FFFFFF;" parent="1" source="a_bGSb2JIHBUvS37xZA7-57" target="a_bGSb2JIHBUvS37xZA7-63" edge="1">
          <mxGeometry relative="1" as="geometry" />
        </mxCell>
        <mxCell id="a_bGSb2JIHBUvS37xZA7-57" value="Wypożyczyć&lt;div&gt;lub usunąć&lt;/div&gt;&lt;div&gt;książkę&lt;/div&gt;" style="rhombus;whiteSpace=wrap;html=1;fontFamily=Architects Daughter;dashed=0;hachureGap=4;fontSource=https%3A%2F%2Ffonts.googleapis.com%2Fcss%3Ffamily%3DArchitects%2BDaughter;labelBackgroundColor=none;rounded=1;" parent="1" vertex="1">
          <mxGeometry x="50" y="585" width="124" height="110" as="geometry" />
        </mxCell>
        <mxCell id="a_bGSb2JIHBUvS37xZA7-66" value="" style="edgeStyle=orthogonalEdgeStyle;rounded=1;orthogonalLoop=1;jettySize=auto;html=1;strokeColor=#FFFFFF;" parent="1" source="a_bGSb2JIHBUvS37xZA7-59" target="a_bGSb2JIHBUvS37xZA7-65" edge="1">
          <mxGeometry relative="1" as="geometry" />
        </mxCell>
        <mxCell id="a_bGSb2JIHBUvS37xZA7-59" value="Wypożyczyć&lt;div&gt;Podać tytuł&lt;/div&gt;&lt;div&gt;książki i autora&lt;/div&gt;" style="shape=parallelogram;perimeter=parallelogramPerimeter;whiteSpace=wrap;html=1;fixedSize=1;fontFamily=Architects Daughter;dashed=0;hachureGap=4;fontSource=https%3A%2F%2Ffonts.googleapis.com%2Fcss%3Ffamily%3DArchitects%2BDaughter;labelBackgroundColor=none;rounded=1;" parent="1" vertex="1">
          <mxGeometry x="10" y="760" width="128" height="60" as="geometry" />
        </mxCell>
        <mxCell id="a_bGSb2JIHBUvS37xZA7-68" value="" style="edgeStyle=orthogonalEdgeStyle;rounded=1;orthogonalLoop=1;jettySize=auto;html=1;strokeColor=#FFFFFF;" parent="1" source="a_bGSb2JIHBUvS37xZA7-63" target="a_bGSb2JIHBUvS37xZA7-67" edge="1">
          <mxGeometry relative="1" as="geometry" />
        </mxCell>
        <mxCell id="a_bGSb2JIHBUvS37xZA7-63" value="Usunąć&lt;div&gt;Zaznaczyć książkę, którą zwrócono&lt;/div&gt;" style="shape=parallelogram;perimeter=parallelogramPerimeter;whiteSpace=wrap;html=1;fixedSize=1;fontFamily=Architects Daughter;dashed=0;hachureGap=4;fontSource=https%3A%2F%2Ffonts.googleapis.com%2Fcss%3Ffamily%3DArchitects%2BDaughter;labelBackgroundColor=none;rounded=1;" parent="1" vertex="1">
          <mxGeometry x="170" y="760" width="142" height="60" as="geometry" />
        </mxCell>
        <mxCell id="a_bGSb2JIHBUvS37xZA7-65" value="Dodaj książkę&lt;div&gt;&amp;nbsp;do listy danego użytkownika&lt;/div&gt;" style="shape=parallelogram;perimeter=parallelogramPerimeter;whiteSpace=wrap;html=1;fixedSize=1;fontFamily=Architects Daughter;dashed=0;hachureGap=4;fontSource=https%3A%2F%2Ffonts.googleapis.com%2Fcss%3Ffamily%3DArchitects%2BDaughter;labelBackgroundColor=none;rounded=1;" parent="1" vertex="1">
          <mxGeometry x="10" y="850" width="128" height="60" as="geometry" />
        </mxCell>
        <mxCell id="a_bGSb2JIHBUvS37xZA7-94" style="edgeStyle=orthogonalEdgeStyle;rounded=1;orthogonalLoop=1;jettySize=auto;html=1;exitX=0.5;exitY=1;exitDx=0;exitDy=0;strokeColor=#FFFFFF;" parent="1" source="a_bGSb2JIHBUvS37xZA7-67" edge="1">
          <mxGeometry relative="1" as="geometry">
            <mxPoint x="750" y="300" as="targetPoint" />
          </mxGeometry>
        </mxCell>
        <mxCell id="a_bGSb2JIHBUvS37xZA7-67" value="Usuń daną&lt;div&gt;&amp;nbsp;książkę z listy&amp;nbsp;&lt;/div&gt;&lt;div&gt;wypożyczeń&lt;/div&gt;" style="shape=parallelogram;perimeter=parallelogramPerimeter;whiteSpace=wrap;html=1;fixedSize=1;fontFamily=Architects Daughter;dashed=0;hachureGap=4;fontSource=https%3A%2F%2Ffonts.googleapis.com%2Fcss%3Ffamily%3DArchitects%2BDaughter;labelBackgroundColor=none;rounded=1;" parent="1" vertex="1">
          <mxGeometry x="170" y="850" width="142" height="60" as="geometry" />
        </mxCell>
        <mxCell id="a_bGSb2JIHBUvS37xZA7-72" value="" style="edgeStyle=orthogonalEdgeStyle;rounded=1;orthogonalLoop=1;jettySize=auto;html=1;strokeColor=#FFFFFF;" parent="1" source="a_bGSb2JIHBUvS37xZA7-69" target="a_bGSb2JIHBUvS37xZA7-71" edge="1">
          <mxGeometry relative="1" as="geometry" />
        </mxCell>
        <mxCell id="a_bGSb2JIHBUvS37xZA7-69" value="Wyświetlenie katalogu książek" style="whiteSpace=wrap;html=1;fontFamily=Architects Daughter;dashed=0;hachureGap=4;fontSource=https%3A%2F%2Ffonts.googleapis.com%2Fcss%3Ffamily%3DArchitects%2BDaughter;labelBackgroundColor=none;rounded=1;" parent="1" vertex="1">
          <mxGeometry x="805" y="500" width="120" height="60" as="geometry" />
        </mxCell>
        <mxCell id="a_bGSb2JIHBUvS37xZA7-76" value="" style="edgeStyle=orthogonalEdgeStyle;rounded=1;orthogonalLoop=1;jettySize=auto;html=1;strokeColor=#FFFFFF;" parent="1" source="a_bGSb2JIHBUvS37xZA7-71" target="a_bGSb2JIHBUvS37xZA7-75" edge="1">
          <mxGeometry relative="1" as="geometry" />
        </mxCell>
        <mxCell id="a_bGSb2JIHBUvS37xZA7-78" value="" style="edgeStyle=orthogonalEdgeStyle;rounded=1;orthogonalLoop=1;jettySize=auto;html=1;strokeColor=#FFFFFF;" parent="1" source="a_bGSb2JIHBUvS37xZA7-71" target="a_bGSb2JIHBUvS37xZA7-77" edge="1">
          <mxGeometry relative="1" as="geometry" />
        </mxCell>
        <mxCell id="a_bGSb2JIHBUvS37xZA7-71" value="Dodać&amp;nbsp;&lt;div&gt;lub usunąć&lt;/div&gt;&lt;div&gt;książkę&lt;/div&gt;" style="rhombus;whiteSpace=wrap;html=1;fontFamily=Architects Daughter;dashed=0;hachureGap=4;fontSource=https%3A%2F%2Ffonts.googleapis.com%2Fcss%3Ffamily%3DArchitects%2BDaughter;labelBackgroundColor=none;rounded=1;" parent="1" vertex="1">
          <mxGeometry x="990" y="480" width="125" height="100" as="geometry" />
        </mxCell>
        <mxCell id="a_bGSb2JIHBUvS37xZA7-80" value="" style="edgeStyle=orthogonalEdgeStyle;rounded=1;orthogonalLoop=1;jettySize=auto;html=1;strokeColor=#FFFFFF;" parent="1" source="a_bGSb2JIHBUvS37xZA7-75" target="a_bGSb2JIHBUvS37xZA7-79" edge="1">
          <mxGeometry relative="1" as="geometry" />
        </mxCell>
        <mxCell id="a_bGSb2JIHBUvS37xZA7-75" value="Dodanie książki&amp;nbsp;&lt;div&gt;do katalogu&lt;/div&gt;" style="whiteSpace=wrap;html=1;fontFamily=Architects Daughter;dashed=0;hachureGap=4;fontSource=https%3A%2F%2Ffonts.googleapis.com%2Fcss%3Ffamily%3DArchitects%2BDaughter;labelBackgroundColor=none;rounded=1;" parent="1" vertex="1">
          <mxGeometry x="900" y="620" width="120" height="60" as="geometry" />
        </mxCell>
        <mxCell id="a_bGSb2JIHBUvS37xZA7-82" value="" style="edgeStyle=orthogonalEdgeStyle;rounded=1;orthogonalLoop=1;jettySize=auto;html=1;strokeColor=#FFFFFF;" parent="1" source="a_bGSb2JIHBUvS37xZA7-77" target="a_bGSb2JIHBUvS37xZA7-81" edge="1">
          <mxGeometry relative="1" as="geometry" />
        </mxCell>
        <mxCell id="a_bGSb2JIHBUvS37xZA7-77" value="Usunięcie książki&lt;div&gt;z katalogu&lt;/div&gt;" style="whiteSpace=wrap;html=1;fontFamily=Architects Daughter;dashed=0;hachureGap=4;fontSource=https%3A%2F%2Ffonts.googleapis.com%2Fcss%3Ffamily%3DArchitects%2BDaughter;labelBackgroundColor=none;rounded=1;" parent="1" vertex="1">
          <mxGeometry x="1080" y="620" width="120" height="60" as="geometry" />
        </mxCell>
        <mxCell id="a_bGSb2JIHBUvS37xZA7-84" value="" style="edgeStyle=orthogonalEdgeStyle;rounded=1;orthogonalLoop=1;jettySize=auto;html=1;strokeColor=#FFFFFF;" parent="1" source="a_bGSb2JIHBUvS37xZA7-79" target="a_bGSb2JIHBUvS37xZA7-83" edge="1">
          <mxGeometry relative="1" as="geometry" />
        </mxCell>
        <mxCell id="a_bGSb2JIHBUvS37xZA7-79" value="Podanie tytułu&lt;div&gt;i autora książki&lt;/div&gt;" style="shape=parallelogram;perimeter=parallelogramPerimeter;whiteSpace=wrap;html=1;fixedSize=1;fontFamily=Architects Daughter;dashed=0;hachureGap=4;fontSource=https%3A%2F%2Ffonts.googleapis.com%2Fcss%3Ffamily%3DArchitects%2BDaughter;labelBackgroundColor=none;rounded=1;" parent="1" vertex="1">
          <mxGeometry x="900" y="710" width="120" height="60" as="geometry" />
        </mxCell>
        <mxCell id="a_bGSb2JIHBUvS37xZA7-86" value="" style="edgeStyle=orthogonalEdgeStyle;rounded=1;orthogonalLoop=1;jettySize=auto;html=1;strokeColor=#FFFFFF;" parent="1" source="a_bGSb2JIHBUvS37xZA7-81" target="a_bGSb2JIHBUvS37xZA7-85" edge="1">
          <mxGeometry relative="1" as="geometry" />
        </mxCell>
        <mxCell id="a_bGSb2JIHBUvS37xZA7-81" value="Podanie tytułu&lt;div&gt;i autora książki&lt;/div&gt;" style="shape=parallelogram;perimeter=parallelogramPerimeter;whiteSpace=wrap;html=1;fixedSize=1;fontFamily=Architects Daughter;dashed=0;hachureGap=4;fontSource=https%3A%2F%2Ffonts.googleapis.com%2Fcss%3Ffamily%3DArchitects%2BDaughter;labelBackgroundColor=none;rounded=1;" parent="1" vertex="1">
          <mxGeometry x="1080" y="710" width="120" height="60" as="geometry" />
        </mxCell>
        <mxCell id="a_bGSb2JIHBUvS37xZA7-97" style="edgeStyle=orthogonalEdgeStyle;rounded=1;orthogonalLoop=1;jettySize=auto;html=1;exitX=0.5;exitY=1;exitDx=0;exitDy=0;strokeColor=#FFFFFF;" parent="1" source="a_bGSb2JIHBUvS37xZA7-83" edge="1">
          <mxGeometry relative="1" as="geometry">
            <mxPoint x="750" y="300" as="targetPoint" />
          </mxGeometry>
        </mxCell>
        <mxCell id="a_bGSb2JIHBUvS37xZA7-83" value="Dodanie książki&amp;nbsp;&lt;div&gt;&amp;nbsp;do&amp;nbsp;&lt;span style=&quot;background-color: initial;&quot;&gt;katalogu&lt;/span&gt;&lt;/div&gt;" style="shape=parallelogram;perimeter=parallelogramPerimeter;whiteSpace=wrap;html=1;fixedSize=1;fontFamily=Architects Daughter;dashed=0;hachureGap=4;fontSource=https%3A%2F%2Ffonts.googleapis.com%2Fcss%3Ffamily%3DArchitects%2BDaughter;labelBackgroundColor=none;rounded=1;" parent="1" vertex="1">
          <mxGeometry x="895" y="800" width="130" height="60" as="geometry" />
        </mxCell>
        <mxCell id="a_bGSb2JIHBUvS37xZA7-98" style="edgeStyle=orthogonalEdgeStyle;rounded=1;orthogonalLoop=1;jettySize=auto;html=1;exitX=0.5;exitY=1;exitDx=0;exitDy=0;strokeColor=#FFFFFF;" parent="1" source="a_bGSb2JIHBUvS37xZA7-85" edge="1">
          <mxGeometry relative="1" as="geometry">
            <mxPoint x="750" y="310" as="targetPoint" />
          </mxGeometry>
        </mxCell>
        <mxCell id="a_bGSb2JIHBUvS37xZA7-85" value="Usunięcie książki&lt;div&gt;z katalogu&lt;/div&gt;" style="shape=parallelogram;perimeter=parallelogramPerimeter;whiteSpace=wrap;html=1;fixedSize=1;fontFamily=Architects Daughter;dashed=0;hachureGap=4;fontSource=https%3A%2F%2Ffonts.googleapis.com%2Fcss%3Ffamily%3DArchitects%2BDaughter;labelBackgroundColor=none;rounded=1;" parent="1" vertex="1">
          <mxGeometry x="1080" y="800" width="120" height="60" as="geometry" />
        </mxCell>
        <mxCell id="a_bGSb2JIHBUvS37xZA7-90" value="" style="edgeStyle=orthogonalEdgeStyle;rounded=1;orthogonalLoop=1;jettySize=auto;html=1;entryX=0;entryY=0.5;entryDx=0;entryDy=0;entryPerimeter=0;strokeColor=#FFFFFF;" parent="1" source="a_bGSb2JIHBUvS37xZA7-87" target="a_bGSb2JIHBUvS37xZA7-91" edge="1">
          <mxGeometry relative="1" as="geometry">
            <mxPoint x="860" y="160" as="targetPoint" />
          </mxGeometry>
        </mxCell>
        <mxCell id="a_bGSb2JIHBUvS37xZA7-87" value="Wylogowanie z programu" style="whiteSpace=wrap;html=1;fontFamily=Architects Daughter;dashed=0;hachureGap=4;fontSource=https%3A%2F%2Ffonts.googleapis.com%2Fcss%3Ffamily%3DArchitects%2BDaughter;labelBackgroundColor=none;rounded=1;" parent="1" vertex="1">
          <mxGeometry x="600" y="130" width="120" height="60" as="geometry" />
        </mxCell>
        <mxCell id="a_bGSb2JIHBUvS37xZA7-91" value="END" style="points=[[0.145,0.145,0],[0.5,0,0],[0.855,0.145,0],[1,0.5,0],[0.855,0.855,0],[0.5,1,0],[0.145,0.855,0],[0,0.5,0]];shape=mxgraph.bpmn.event;html=1;verticalLabelPosition=bottom;labelBackgroundColor=#ffffff;verticalAlign=top;align=center;perimeter=ellipsePerimeter;outlineConnect=0;aspect=fixed;outline=end;symbol=terminate2;rounded=1;" parent="1" vertex="1">
          <mxGeometry x="790" y="135" width="50" height="50" as="geometry" />
        </mxCell>
        <mxCell id="a_bGSb2JIHBUvS37xZA7-93" style="edgeStyle=orthogonalEdgeStyle;rounded=1;orthogonalLoop=1;jettySize=auto;html=1;exitX=0.75;exitY=1;exitDx=0;exitDy=0;entryX=1;entryY=0.5;entryDx=0;entryDy=0;strokeColor=#FFFFFF;" parent="1" source="a_bGSb2JIHBUvS37xZA7-65" target="a_bGSb2JIHBUvS37xZA7-20" edge="1">
          <mxGeometry relative="1" as="geometry">
            <mxPoint x="750" y="450" as="targetPoint" />
          </mxGeometry>
        </mxCell>
      </root>
    </mxGraphModel>
  </diagram>
</mxfile>
